<svg version="1.1" id="Layer_1" xmlns="http://www.w3.org/2000/svg" x="0" y="0" viewBox="0 0 310 310" xml:space="preserve"><g id="XMLID_826_"><path id="XMLID_827_" d="M288.9 103.3c-4.4 1.9-8.9 3.6-13.5 4.9 5.4-6.2 9.6-13.4 12.1-21.3.6-1.8 0-3.7-1.5-4.9-1.5-1.2-3.5-1.3-5.1-.4-9.8 5.8-20.3 9.9-31.3 12.4-11-10.8-26.1-17-41.8-17-33 0-59.8 26.8-59.8 59.8 0 2.6.2 5.2.5 7.7-40.9-3.6-78.9-23.7-105-55.7-.9-1.1-2.4-1.8-3.8-1.6-1.5.1-2.8.9-3.5 2.2-5.3 9.1-8.1 19.5-8.1 30.1 0 14.4 5.1 28.1 14.2 38.8-2.8-1-5.4-2.2-8-3.6-1.4-.8-3-.8-4.4 0-1.4.8-2.2 2.2-2.3 3.8v.8c0 21.5 11.6 40.9 29.3 51.4-1.5-.2-3-.4-4.5-.7-1.6-.3-3.2.2-4.2 1.4-1.1 1.2-1.4 2.8-.9 4.3 6.5 20.4 23.4 35.5 43.8 40.1-16.9 10.6-36.2 16.1-56.5 16.1-4.2 0-8.5-.2-12.7-.7-2.1-.2-4.1 1-4.8 2.9-.7 2 0 4.2 1.8 5.3C44.9 296.2 75 305 106 305c60.9 0 98.9-28.7 120.2-52.8 26.5-30 41.6-69.8 41.6-109 0-1.6 0-3.3-.1-4.9 10.4-7.9 19.4-17.4 26.7-28.3 1.1-1.7 1-3.9-.3-5.4-1.2-1.6-3.3-2.1-5.2-1.3z" fill="#4a5568"/></g></svg>