<svg version="1.1" id="Layer_1" xmlns="http://www.w3.org/2000/svg" x="0" y="0" viewBox="0 0 798.6 689.2" xml:space="preserve"><style>.st0{fill:#a0616a}.st1{fill:#d0cde1}.st3{fill:#4a5568}.st4{fill:#3f3d56}</style><circle class="st0" cx="425" cy="186" r="51.6"/><path class="st0" d="M386.5 211.8s9.7 73.2-5.2 81.5c-14.9 8.2 88.9 9 88.9 9s-23.2-63.5-12.7-83l-71-7.5z"/><path class="st1" d="M546.1 302.6l-8.6 39.3-18.3 83.2-.5 4.6-6.3 52.8-4.2 35.1-2.8 23.5c-17.1 8.8-29.5 14.9-29.5 14.9s-1.1-5.3-2.8-12.2c-12 3.6-34.2 9.6-53 10.8 6.9 7.6 10 14.8 5.7 20.1-12.9 16-66.1-17.5-84.7-29.9-.4 3-.6 6-.5 9l-14.2-11 1.4-25.2 2.4-42.6 3-53.5c-.9-2.3-1.7-4.6-2.4-7-4.4-15.5-9.7-46.5-13.7-72.5-3.3-20.9-5.7-38.6-6.2-42.3-.1-.5-.1-.7-.1-.7l78.8-34.8c5.6 13 31.8 16.9 31.8 16.9 21.7-1.5 38.7-12.9 38.7-12.9l86 34.4z"/><path class="st0" d="M481.8 541s-3.3 1.1-8.8 2.8c-12 3.6-34.2 9.6-53 10.8-16.2 1-29.9-1.5-32.4-12-1.1-4.5.4-8.3 3.8-11.4 9.9-9.2 35.8-12.5 56.3-13.6 5.8-.3 11.1-.5 15.6-.5 7.6-.1 12.5.1 12.5.1l.1.5 5.9 23.3z"/><path d="M382.1 137.2l-9.6-3.9s20.2-22.2 48.2-20.3l-7.9-8.7s19.3-7.7 36.8 12.5c9.2 10.7 19.9 23.2 26.5 37.3h10.3l-4.3 9.5 15.1 9.5-15.5-1.7c.9 5.2 1.1 10.5.4 15.7-.7 5.2-3.3 10-7.5 13.3 0 0-12-24.8-12-28.6v9.6s-9.6-8.7-9.6-14.5l-5.3 6.8-2.6-10.6-32.4 10.6 5.3-8.7-20.2 2.9 7.9-10.6s-22.8 12.5-23.7 23.2c-.9 10.6-7.5 20.7-7.5 20.7s-17.8-49.5 7.6-64z" fill="#2f2e41"/><path class="st1" d="M602.1 483.4c-5.3 5.7-18.3 14.3-34 23.6-5.9 3.5-12.1 7-18.5 10.5-15.2 8.4-31.1 16.8-44.3 23.5-17.1 8.8-29.5 14.9-29.5 14.9s-1.1-5.3-2.8-12.2c-2.3-9.2-5.8-21-9.4-26.2-.1-.2-.3-.4-.4-.5-1.1-1.4-2.1-2.2-3.2-2.2l52.2-32.3 22.6-14-16.2-38.8-20.4-48.7 12.3-39.1 12.4-39.3h23.2s7.7 16.7 17.5 40.1c1.5 3.5 3 7.1 4.5 10.9 20.1 49 45.3 117.6 34 129.8z"/><path class="st0" d="M425.7 574.6c-12.9 16-66.1-17.5-84.7-29.9-4.1-2.7-6.5-4.4-6.5-4.4l17-22.7 5.4-7.2s4.8 2.6 12 6.7c.3.2.5.3.8.5 6.1 3.6 13.9 8.3 21.7 13.6 10.7 7.3 21.6 15.6 28.6 23.4 6.9 7.5 10 14.7 5.7 20z"/><path class="st1" d="M368.9 517.1c-1.9 0-3.8.1-5.7.5-16.1 2.8-20.9 17.4-22.2 27.1-.4 3-.6 6-.5 9l-14.2-11-5.2-4c-12.5-4.4-23.6-12.1-33.3-21.2-8.4-8.1-15.9-17-22.4-26.6-6.5-9.5-12.3-19.4-17.3-29.7-2.8-5.8-3-12.6-.3-18.5l17.6-39.3 25.8-57.4c.2-1.4.4-2.7.6-4 5.1-29.3 18.8-42.3 18.8-42.3h10.5l7 42.3 8.7 52.6-6.1 19.9-14.1 45.9 13.5 14.6 38.8 42.1z"/><path class="st3" d="M380.8 394.5l8.9 10.4c3.3-.6 6.8-1.4 10.4-2.2l-2.6-8.2 6.3 7.3c37.9-9.3 84.8-27.4 84.8-27.4s-50.7 3.7-88.5-4.6c-16.7-3.7-34 4.6-40.8 20.3-4 9.1-3.4 17 10.8 17 4.8-.1 9.6-.5 14.3-1.3l-3.6-11.3z"/><path class="st4" d="M584.7 566v4.3c0 1.2-.2 2.3-.6 3.4-.2.5-.4 1-.7 1.4-1.7 2.9-4.8 4.6-8.1 4.6H262.1c-3.3 0-6.4-1.7-8.1-4.6-.3-.4-.5-.9-.7-1.4-.4-1.1-.6-2.2-.6-3.4V566c0-5.2 4.2-9.4 9.4-9.4h18v-2c0-.2.2-.4.4-.4h9.4c.2 0 .4.2.4.4v2h5.9v-2c0-.2.2-.4.4-.4h9.4c.2 0 .4.2.4.4v2h5.9v-2c0-.2.2-.4.4-.4h9.4c.2 0 .4.2.4.4v2h5.9v-2c0-.2.2-.4.4-.4h9.4c.2 0 .4.2.4.4v2h5.9v-2c0-.2.2-.4.4-.4h9.4c.2 0 .4.2.4.4v2h5.9v-2c0-.2.2-.4.4-.4h9.4c.2 0 .4.2.4.4v2h5.9v-2c0-.2.2-.4.4-.4h73.8c.2 0 .4.2.4.4v2h5.9v-2c0-.2.2-.4.4-.4h9.4c.2 0 .4.2.4.4v2h5.9v-2c0-.2.2-.4.4-.4h9.4c.2 0 .4.2.4.4v2h5.9v-2c0-.2.2-.4.4-.4h9.4c.2 0 .4.2.4.4v2h5.9v-2c0-.2.2-.4.4-.4h9.4c.2 0 .4.2.4.4v2h5.9v-2c0-.2.2-.4.4-.4h9.4c.2 0 .4.2.4.4v2h5.9v-2c0-.2.2-.4.4-.4h9.4c.2 0 .4.2.4.4v2h27.5c5.1 0 9.3 4.2 9.3 9.4z"/><path class="st4" d="M161.7 573.7h514v1.4h-514zm397.8-186.9H442.7v-2.4h-52.9v2.4H272.6c-4.4 0-7.9 3.5-7.9 7.9v159.8c0 4.4 3.5 7.9 7.9 7.9h286.8c4.4 0 7.9-3.5 7.9-7.9V394.7c.1-4.4-3.5-7.9-7.8-7.9z"/><circle cx="416.3" cy="442.6" r="17.5" fill="none" stroke="#d0cde1" stroke-width="1.403" stroke-miterlimit="10"/><circle class="st1" cx="410.7" cy="448.9" r="17.5"/><path class="st1" d="M175.7 566.6h19.6v19.6h-19.6z"/><path class="st4" d="M183.4 551.2V575h23.8v-23.8h-23.8zm22.8 22.8h-21.8v-21.8h21.8V574z"/><path class="st1" d="M630.1 566.6h19.6v19.6h-19.6z"/><path class="st4" d="M637.8 551.2V575h23.8v-23.8h-23.8zm22.8 22.8h-21.8v-21.8h21.8V574z"/><circle class="st3" cx="185.6" cy="208.7" r="55.6"/><path class="st4" d="M205 142.6c-5-.6-10.1-.6-15.2 0-22.9 3-42 19.1-48.8 41.2-1.5 4.9-2.4 10-2.6 15.2v2.2c0 32.6 26.4 59 59 59 1.3 0 2.5 0 3.8-.1 2.9-.2 5.8-.6 8.6-1.2 31.9-6.9 52.1-38.2 45.3-70.1-5.2-24.5-25.3-43-50.1-46.2zm10.9 112.8c-4.8 1.6-9.7 2.6-14.7 2.9-1.2.1-2.5.1-3.8.1-31.6 0-57.3-25.7-57.3-57.3v-2.2c1.2-30.8 26.5-55.1 57.3-55.2 31.7 0 57.3 25.7 57.3 57.3 0 24.6-15.6 46.5-38.8 54.4z"/><path class="st4" d="M196.6 147.1h1.7v11.8h-1.7z"/><path transform="rotate(-45.001 163.448 167.125)" class="st4" d="M162.6 161.2h1.7V173h-1.7z"/><path class="st4" d="M143.5 200.3h11.8v1.7h-11.8z"/><path transform="rotate(-45.001 163.447 235.077)" class="st4" d="M157.5 234.2h11.8v1.7h-11.8z"/><path transform="rotate(-45.001 231.4 167.125)" class="st4" d="M225.5 166.3h11.8v1.7h-11.8z"/><path class="st4" d="M239.6 200.3h11.8v1.7h-11.8z"/><path transform="rotate(-45.001 231.4 235.078)" class="st4" d="M230.6 229.2h1.7V241h-1.7z"/><path class="st4" d="M196.6 243.2h1.7V255h-1.7zm3.4-45.5c-1.5-1.1-3.6-1.1-5.1 0-.5.4-.9.9-1.2 1.4-1.1 2.1-.3 4.6 1.8 5.7 2.1 1.1 4.6.3 5.7-1.8.9-1.8.4-4-1.2-5.3zm-2.6 5.9c-1.4 0-2.5-1.1-2.5-2.5 0-.5.2-1 .4-1.4.8-1.1 2.4-1.4 3.5-.6 1.1.8 1.4 2.4.6 3.5-.4.6-1.1 1-2 1zm-7.6-75.8H205V143h-15.2z"/><ellipse class="st4" cx="197.4" cy="123.1" rx="20.2" ry="7.2"/><path class="st4" d="M194.9 169.1h5.1v28.7h-5.1zm-75.6 88.4h158.5v1.7H119.3z"/><path class="st1" d="M224.9 523.5c.7 22.4-12.4 30.6-28.9 31.1h-3.4c-14.9-.6-26.6-8.5-27.2-29.3-.6-21.6 26.1-49.6 28.1-51.7l.1-.1s30.6 27.6 31.3 50z"/><path class="st4" d="M194.9 551.2l10.4-15.5-10.4 17.2v1.7h-2.3l.5-22.4v-2.3l-11.4-16.6 11.4 15v.4l.4-17-9.9-17.2 9.9 14.2-.1-35.1v-.1.1l.7 27.7 9-11.2-9 13.6.2 15.2 8.3-14.8-8.2 17 .1 8.4 12-20.6-12 23.6.4 18.7z"/><path class="st1" d="M679.3 523.5c.7 22.4-12.4 30.6-28.9 31.1H647c-14.9-.6-26.6-8.5-27.2-29.3-.6-21.6 26.1-49.6 28.1-51.7l.1-.1s30.6 27.6 31.3 50z"/><path class="st4" d="M649.3 551.2l10.4-15.5-10.4 17.2v1.7H647l.5-22.4v-2.3l-11.4-16.6 11.4 15v.4l.4-17-9.9-17.2 9.9 14.2-.1-35.1v-.1.1l.7 27.7 9-11.2-9 13.6.2 15.2 8.3-14.8-8.2 17 .1 8.4 12-20.6-12 23.6.4 18.7z"/></svg>