<svg version="1.1" id="Layer_1" xmlns="http://www.w3.org/2000/svg" x="0" y="0" viewBox="0 0 310 310" xml:space="preserve"><path d="M197.8 63.2c-23.1-5.4-47.2-5.4-70.4 0-13.4-8.2-23.6-12-31-13.6-4-.9-7.2-1.1-9.6-1-1.2 0-2.2.1-3 .3-.4.1-.7.1-1 .2-.1 0-.3.1-.4.1h-.3s0 .1 2.6 9.1l-2.7-9c-2.7.8-4.9 2.7-6 5.2-3.2 7.1-4.9 14.8-5.1 22.6-.2 5.9.5 11.7 2.1 17.2-4 4.9-7.3 10.4-9.7 16.2-3.2 7.7-4.8 16-4.8 24.3 0 29.4 8.7 49.2 23.5 61.9 10.4 8.9 22.9 13.6 35.6 16.3-2.1 5.8-2.6 11.9-2.2 18.1v11.3c-7.7 1.6-13 1.1-16.8-.1-4.8-1.6-8.4-4.7-11.9-9.3-1.8-2.3-3.4-4.8-5.1-7.6l-1.1-1.8c-1.3-2.2-2.8-4.5-4.2-6.7-3.6-5.3-8.9-12-17.6-14.3l-9.2-2.4-4.8 18.3 9.2 2.4c1.5.4 3.5 1.8 6.7 6.6 1.2 1.8 2.3 3.6 3.6 5.7.4.7.8 1.4 1.3 2.1 1.8 2.9 3.8 6.1 6.2 9.2 4.8 6.3 11.3 12.6 21 15.7 6.7 2.2 14.2 2.7 22.8 1.4V297c0 5.2 4.2 9.5 9.5 9.5h75.8c5.2 0 9.5-4.2 9.5-9.5v-67.5c0-6-.3-11.4-1.9-16.6 12.5-2.6 25-7.4 35.3-16.3 14.8-12.8 23.4-32.7 23.4-62.3 0-14.7-5.2-29-14.5-40.2 1.5-5.6 2.2-11.4 2.1-17.2-.2-7.8-1.9-15.5-5.1-22.6-1.1-2.6-3.4-4.5-6-5.2l-2.6 9.1 2.6-9.1h-.3c-.1 0-.3-.1-.4-.1-.3-.1-.6-.1-1-.2-.8-.1-1.8-.2-3-.3-2.4-.1-5.6.2-9.6 1-7.9 1.8-18.2 5.5-31.5 13.7z" fill="#4a5568"/></svg>