<svg version="1.1" id="Layer_1" xmlns="http://www.w3.org/2000/svg" x="0" y="0" viewBox="0 0 751.1 526.9" xml:space="preserve"><style>.st1{fill:#fff}.st2{fill:#ccc}.st3{fill:#e6e6e6}.st4{fill:#4a5568}.st5{fill:#3f3d56}.st6{fill:#9e616a}.st7{fill:#2f2e41}</style><path d="M563.3 504.1v-.6c.6-21.7 10.7-42.1 27.7-55.7 4.7-3.7 9.9-6.9 15.4-9.3l.5-.2.1.6c1.1 6.8 2.8 13.7 3.5 16.8l5.3-20.6.6-.2c5.5-1.6 11.4.3 15 4.8 3.7 4.5 4.3 10.8 1.5 15.9-1.2 2.3-2.4 4.7-3.6 7-4 7.9-8.2 16.2-14.2 22.6-9.4 9.7-22.6 14.6-36.1 13.5l-15.7 5.4zM402.8 315.9H266.6c-10.2 0-18.5-8.3-18.5-18.5V105.7c.1-46.6 37.8-84.4 84.4-84.4h70.3c10.2 0 18.5 8.3 18.5 18.5v257.6c0 10.3-8.2 18.5-18.5 18.5z" fill="#f2f2f2"/><path class="st1" d="M271.3 187.9c-4.3 0-7.8 3.5-7.8 7.8v43.8c0 4.3 3.5 7.8 7.8 7.8h132.4c4.3 0 7.8-3.5 7.8-7.8v-43.8c0-4.3-3.5-7.8-7.8-7.8H271.3zm132.8-28.4H271.7c-4.7 0-8.4-3.8-8.4-8.4 0-28.8 23.4-52.2 52.2-52.2h88.7c4.7 0 8.4 3.8 8.4 8.4v43.8c-.1 4.7-3.9 8.4-8.5 8.4z"/><path class="st1" d="M461.1 240.6H308.7c-1.9 0-3.4-1.5-3.4-3.4V197c0-1.9 1.5-3.4 3.4-3.4h152.5c1.9 0 3.4 1.5 3.4 3.4v40.2c-.1 1.8-1.6 3.4-3.5 3.4z"/><path class="st2" d="M461.1 241.2H308.7c-2.2 0-4-1.8-4-4V197c0-2.2 1.8-4 4-4h152.5c2.2 0 4 1.8 4 4v40.2c-.1 2.2-1.9 4-4.1 4zm-152.4-46.9c-1.5 0-2.7 1.2-2.7 2.7v40.2c0 1.5 1.2 2.7 2.7 2.7h152.5c1.5 0 2.7-1.2 2.7-2.7V197c0-1.5-1.2-2.7-2.7-2.7H308.7z"/><circle class="st3" cx="321.6" cy="207.2" r="5.5"/><path class="st3" d="M452 221H317.8c-.9 0-1.6-.7-1.6-1.6 0-.9.7-1.6 1.6-1.6H452c.9 0 1.6.7 1.6 1.6 0 .9-.7 1.6-1.6 1.6zm-13.3 6.5H317.8c-.9 0-1.6-.7-1.6-1.6 0-.9.7-1.6 1.6-1.6h120.9c.9 0 1.6.7 1.6 1.6 0 .8-.7 1.6-1.6 1.6z"/><path class="st1" d="M302.7 502.6l-37.3-14.9c-1.7-.7-2.6-2.7-1.9-4.4L320 341.7c.7-1.7 2.7-2.6 4.4-1.9l37.3 14.9c1.7.7 2.6 2.7 1.9 4.4l-56.4 141.6c-.8 1.7-2.7 2.5-4.5 1.9z"/><path class="st2" d="M302.5 503.1l-37.3-14.9c-2.1-.8-3.1-3.2-2.2-5.2l56.4-141.6c.8-2.1 3.2-3.1 5.2-2.2l37.3 14.9c2.1.8 3.1 3.2 2.2 5.2l-56.4 141.6c-.8 2.1-3.2 3.1-5.2 2.2zm-38.4-19.6c-.6 1.4.1 3 1.5 3.6L303 502c1.4.6 3-.1 3.6-1.5L363 358.8c.6-1.4-.1-3-1.5-3.6l-37.3-14.9c-1.4-.6-3 .1-3.6 1.5l-56.5 141.7z"/><circle class="st3" cx="327.8" cy="358.7" r="5.5"/><path class="st3" d="M290.2 485.9c-.8-.3-1.2-1.3-.9-2.1L339 359.1c.3-.8 1.3-1.3 2.1-.9.8.3 1.3 1.3.9 2.1L292.3 485c-.3.8-1.3 1.2-2.1.9zm10.9-10c-.8-.3-1.2-1.3-.9-2.1L345 361.4c.3-.8 1.3-1.3 2.1-.9.8.3 1.3 1.3.9 2.1L303.3 475c-.4.8-1.3 1.2-2.2.9z"/><circle class="st1" cx="394.6" cy="44.8" r="14.4"/><path class="st3" d="M401.7 44.2h-6.5v-6.5c0-.3-.3-.6-.6-.6s-.6.3-.6.6v6.5h-6.5c-.3 0-.6.3-.6.6s.3.6.6.6h6.5v6.5c0 .3.3.6.6.6s.6-.3.6-.6v-6.5h6.5c.3 0 .6-.3.6-.6s-.3-.6-.6-.6z"/><path class="st4" d="M572.5 56.7h-48.7c-6.6 0-11.9-5.3-11.9-11.9 0-6.6 5.3-11.9 11.9-11.9h48.7c6.6 0 11.9 5.3 11.9 11.9 0 6.5-5.3 11.9-11.9 11.9z"/><path transform="rotate(-89.172 453.093 41.414)" class="st5" d="M452.2-5.7h1.8v94.1h-1.8z"/><path class="st5" d="M402.1 45.7c-2.5 0-4.6-2.1-4.6-4.6 0-2.5 2.1-4.6 4.6-4.6s4.6 2.1 4.6 4.6c0 1.8-1 3.4-2.6 4.1-.6.4-1.3.5-2 .5zm0-7.3c-1.5 0-2.8 1.2-2.8 2.8 0 1.5 1.2 2.8 2.8 2.8 1.5 0 2.8-1.2 2.8-2.8 0-.4-.1-.8-.3-1.2-.5-1-1.5-1.6-2.5-1.6z"/><path class="st4" d="M120.1 72.3c0-6.6 5.4-11.9 11.9-11.9h48.7c6.6 0 11.9 5.3 11.9 11.9s-5.3 11.9-11.9 11.9H132c-6.6 0-11.9-5.3-11.9-11.9z"/><path transform="rotate(-.827 251.421 68.99)" class="st5" d="M204.4 68.1h94.1v1.8h-94.1z"/><path class="st5" d="M300.4 72.8c-2.3-1.1-3.2-3.8-2.1-6.1s3.8-3.2 6.1-2.1 3.2 3.8 2.1 6.1c-.8 1.6-2.4 2.6-4.1 2.6-.7 0-1.4-.2-2-.5zm1.1-6.7c-.7.2-1.3.7-1.6 1.4-.7 1.4-.1 3 1.3 3.7 1.4.7 3 .1 3.7-1.3.7-1.4.1-3-1.3-3.7-.6-.3-1.4-.4-2.1-.1z"/><path class="st4" d="M116.4 433.5c0-6.6 5.4-11.9 11.9-11.9H177c6.6 0 11.9 5.3 11.9 11.9 0 6.6-5.3 11.9-11.9 11.9h-48.7c-6.5 0-11.9-5.3-11.9-11.9z"/><path transform="rotate(-.827 247.747 430.177)" class="st5" d="M200.7 429.3h94.1v1.8h-94.1z"/><path class="st5" d="M296.7 434c-2.3-1.1-3.2-3.8-2.1-6.1s3.8-3.2 6.1-2.1 3.2 3.8 2.1 6.1c-.8 1.6-2.4 2.6-4.1 2.6-.6 0-1.3-.2-2-.5zm1.2-6.7c-.7.2-1.3.7-1.6 1.4-.7 1.4-.1 3 1.3 3.7 1.4.7 3 .1 3.7-1.3.7-1.4.1-3-1.3-3.7-.7-.3-1.5-.4-2.1-.1z"/><path class="st4" d="M129.3 205.6c0-6.6 5.4-11.9 11.9-11.9h48.7c6.6 0 11.9 5.3 11.9 11.9s-5.3 11.9-11.9 11.9h-48.7c-6.6 0-11.9-5.3-11.9-11.9z"/><path transform="rotate(-.827 260.611 202.25)" class="st5" d="M213.5 201.3h94.1v1.8h-94.1z"/><path class="st5" d="M309.6 206.1c-2.3-1.1-3.2-3.8-2.1-6.1s3.8-3.2 6.1-2.1 3.2 3.8 2.1 6.1c-.8 1.6-2.4 2.6-4.1 2.6-.7 0-1.4-.2-2-.5zm1.1-6.7c-.7.2-1.3.7-1.6 1.4-.7 1.4-.1 3 1.3 3.7 1.4.7 3 .1 3.7-1.3.7-1.4.1-3-1.3-3.7-.6-.3-1.4-.4-2.1-.1z"/><path class="st4" d="M559.6 133h-48.7c-6.6 0-11.9-5.3-11.9-11.9 0-6.6 5.3-11.9 11.9-11.9h48.7c6.6 0 11.9 5.3 11.9 11.9.1 6.5-5.3 11.9-11.9 11.9z"/><path transform="rotate(-89.172 440.226 117.695)" class="st5" d="M439.3 70.6h1.8v94.1h-1.8z"/><path class="st5" d="M389.2 122c-2.5 0-4.6-2.1-4.6-4.6 0-2.5 2.1-4.6 4.6-4.6 2.5 0 4.6 2.1 4.6 4.6 0 1.8-1 3.4-2.6 4.1-.6.3-1.3.5-2 .5zm0-7.4c-1.5 0-2.8 1.2-2.8 2.8 0 1.5 1.2 2.8 2.8 2.8 1.5 0 2.8-1.2 2.8-2.8 0-.4-.1-.8-.3-1.2-.5-1-1.4-1.6-2.5-1.6z"/><path class="st6" d="M585.7 269.1l-14.1.6c-3.2 8.7-.9 29.7-.9 29.7l-7.4 34.6c-2.4 2.4-2.5 6.4 0 8.8 2.4 2.4 6.4 2.5 8.8 0 1.6-1.6 2.2-3.9 1.6-6.1l15.1-41.5-3.1-26.1z"/><path class="st5" d="M576.2 231.2c8.2-.3 15.2 6.2 15.4 14.4 0 .9 0 1.8-.2 2.8l-1.4 8.8s3.9 30.1-.9 38.3l-9 24.5-14.7-.8 4.1-26.7s1-13.2-2.7-18.8c-2.3-3.4-4.6-16.3-5-27.1-.3-8.2 6.2-15.1 14.4-15.4z"/><path class="st6" d="M566 494.3h-9.2l-4.3-35.5H566z"/><path class="st7" d="M566.3 503.8H538v-.4c0-6.1 4.9-11 11-11l5.2-3.9 9.6 3.9h2.5v11.4z"/><path class="st6" d="M532.8 494.3h-9.2l-4.3-35.5h13.5z"/><path class="st7" d="M533.2 503.8h-28.3v-.4c0-6.1 4.9-11 11-11l5.2-3.9 9.6 3.9h2.5v11.4zm-33.7-106.1c5.5 17.4 7.6 31 11.7 48.2 1.6 3 8.7 28.1 8.7 28.1s10.6 1.2 14.3-1.8c3.7-3-.1-17.6-.1-17.6 2.5-11.1-3.6-28.6-4-39.3.7-4.5-3.2-8.4-3.6-12.7 2.6-2 15.4-33.4 18-42.1-1.3 26.7 10.4 87.7 4.2 107.9-3.6 11.8 4.8 9.2 17.1 9.7 5.5-1.6 3.3-11.1 3.3-11.1s3.7-6.2 3.7-8.7c2.7-11.3 5.9-35.9 5-41.5.4-5.9.6-64.6 5.1-85.1 3-16.4-33.7-20-44.2-23.9-17.6-8.5-14.6 3.6-23.9 14.7-8.7 19.2-14 53.3-15.3 75.2z"/><path class="st5" d="M540.5 225.6l10.7-12 16.9 1.9 10.8 15.1c11.9 2.7 14.1 12.5 12 24.6-4.2 24.1-14.5 41-9.8 52.9 7.1 18.1 3.7 32-13.4 29.5s-56.5-19.3-45.4-30.4c11.1-11.1 1.2-16.9 1.2-16.9l7.8-42.5c-2-10.9-1.7-21.1 9.2-22.2z"/><path class="st6" d="M541.9 263.7l-13.5-4.4c-6 7-11.3 27.5-11.3 27.5L498 316.5c-3.1 1.4-4.5 5.1-3.1 8.3 1.4 3.1 5.1 4.5 8.3 3.1 2-.9 3.4-2.9 3.7-5.1l28.7-33.5 6.3-25.6z"/><path class="st5" d="M546.4 225c7.8 2.6 12 11.1 9.4 18.9-.3.9-.7 1.7-1.1 2.5l-4.4 7.8s-6.9 29.5-14.3 35.5l-17.1 19.7-13.5-5.9 13.2-23.6s5.6-12 4.1-18.6c-1-4 1.4-16.9 4.8-27.1 2.6-7.7 11.1-11.9 18.9-9.2z"/><circle id="fe5d9414-b808-43bb-a4dc-97fa5cac342b" cx="563.7" cy="193.5" r="17.4" fill="#a0616a"/><path class="st7" d="M548.6 177.8c.3-1.4.8-2.8 1.7-4 1.7-2 4.7-2.3 6.8-.6.1.1.3.2.4.4-.3-.8-.4-1.6-.2-2.5 1.3.6 2.6 1 4 1.2l-3.1-3.2c6.4-2.8 11.6-2.7 15.4 1.4 1.1 1.2 3.3.4 4.5 1.6 1.2 1.2 1.2 3.8-.2 4.5 2.9-1.1 6.3.5 8.2 3.2 1.9 2.7 2.6 6.2 2.8 9.6.2 4.4-.7 9.1-3.4 12.4-1.8 2.1-4.2 3.5-6.1 5.4l-.1.1c-4.4 4.5-10.8 6.3-16.8 4.7-.3-.1-.7-.2-1-.3-1.7.8-3.7-.3-4.8-1.9-1.1-1.8-1.3-4.1-1.4-6.2-.1-2.8.1-5.7.5-8.5.5-3.2.9-7.2-1.6-8.8-2-1.2-4.4 0-6.3 1.2-.3-3.4-.1-6.6.7-9.7z"/><path d="M719.6 505.3l-688.1.3c-.6 0-1.1-.5-1.1-1.1 0-.6.5-1.1 1.1-1.1l688.1-.3c.6 0 1.1.5 1.1 1.1s-.5 1.1-1.1 1.1z" fill="#cacaca"/></svg>