<?xml version="1.0" encoding="utf-8"?>
<!-- Generator: Adobe Illustrator 26.0.3, SVG Export Plug-In . SVG Version: 6.00 Build 0)  -->
<svg version="1.1" id="Layer_1" xmlns="http://www.w3.org/2000/svg" xmlns:xlink="http://www.w3.org/1999/xlink" x="0px" y="0px"
	 viewBox="0 0 751.1 526.9" style="enable-background:new 0 0 751.1 526.9;" xml:space="preserve">
<style type="text/css">
	.st0{fill:#F2F2F2;}
	.st1{fill:#FFFFFF;}
	.st2{fill:#CCCCCC;}
	.st3{fill:#E6E6E6;}
	.st4{fill:#4A5568;}
	.st5{fill:#3F3D56;}
	.st6{fill:#9E616A;}
	.st7{fill:#2F2E41;}
	.st8{fill:#A0616A;}
	.st9{fill:#CACACA;}
</style>
<path class="st0" d="M563.3,504.1l0-0.6c0.6-21.7,10.7-42.1,27.7-55.7c4.7-3.7,9.9-6.9,15.4-9.3l0.5-0.2l0.1,0.6
	c1.1,6.8,2.8,13.7,3.5,16.8l5.3-20.6l0.6-0.2c5.5-1.6,11.4,0.3,15,4.8c3.7,4.5,4.3,10.8,1.5,15.9c-1.2,2.3-2.4,4.7-3.6,7
	c-4,7.9-8.2,16.2-14.2,22.6c-9.4,9.7-22.6,14.6-36.1,13.5L563.3,504.1z"/>
<path class="st0" d="M402.8,315.9H266.6c-10.2,0-18.5-8.3-18.5-18.5V105.7c0.1-46.6,37.8-84.4,84.4-84.4h70.3
	c10.2,0,18.5,8.3,18.5,18.5v257.6C421.3,307.7,413.1,315.9,402.8,315.9z"/>
<path class="st1" d="M271.3,187.9c-4.3,0-7.8,3.5-7.8,7.8v43.8c0,4.3,3.5,7.8,7.8,7.8h132.4c4.3,0,7.8-3.5,7.8-7.8v-43.8
	c0-4.3-3.5-7.8-7.8-7.8H271.3z"/>
<path class="st1" d="M404.1,159.5H271.7c-4.7,0-8.4-3.8-8.4-8.4c0-28.8,23.4-52.2,52.2-52.2h88.7c4.7,0,8.4,3.8,8.4,8.4v43.8
	C412.5,155.8,408.7,159.5,404.1,159.5z"/>
<path class="st1" d="M461.1,240.6H308.7c-1.9,0-3.4-1.5-3.4-3.4V197c0-1.9,1.5-3.4,3.4-3.4h152.5c1.9,0,3.4,1.5,3.4,3.4v40.2
	C464.5,239,463,240.6,461.1,240.6z"/>
<path class="st2" d="M461.1,241.2H308.7c-2.2,0-4-1.8-4-4V197c0-2.2,1.8-4,4-4h152.5c2.2,0,4,1.8,4,4v40.2
	C465.1,239.4,463.3,241.2,461.1,241.2z M308.7,194.3c-1.5,0-2.7,1.2-2.7,2.7v40.2c0,1.5,1.2,2.7,2.7,2.7h152.5
	c1.5,0,2.7-1.2,2.7-2.7V197c0-1.5-1.2-2.7-2.7-2.7H308.7z"/>
<circle class="st3" cx="321.6" cy="207.2" r="5.5"/>
<path class="st3" d="M452,221H317.8c-0.9,0-1.6-0.7-1.6-1.6c0-0.9,0.7-1.6,1.6-1.6c0,0,0,0,0,0H452c0.9,0,1.6,0.7,1.6,1.6
	C453.6,220.3,452.9,221,452,221C452,221,452,221,452,221z"/>
<path class="st3" d="M438.7,227.5H317.8c-0.9,0-1.6-0.7-1.6-1.6c0-0.9,0.7-1.6,1.6-1.6h120.9c0.9,0,1.6,0.7,1.6,1.6
	C440.3,226.7,439.6,227.5,438.7,227.5z"/>
<path class="st1" d="M302.7,502.6l-37.3-14.9c-1.7-0.7-2.6-2.7-1.9-4.4L320,341.7c0.7-1.7,2.7-2.6,4.4-1.9l37.3,14.9
	c1.7,0.7,2.6,2.7,1.9,4.4l-56.4,141.6C306.4,502.4,304.5,503.2,302.7,502.6z"/>
<path class="st2" d="M302.5,503.1l-37.3-14.9c-2.1-0.8-3.1-3.2-2.2-5.2l56.4-141.6c0.8-2.1,3.2-3.1,5.2-2.2l37.3,14.9
	c2.1,0.8,3.1,3.2,2.2,5.2l-56.4,141.6C306.9,503,304.5,504,302.5,503.1z M264.1,483.5c-0.6,1.4,0.1,3,1.5,3.6L303,502
	c1.4,0.6,3-0.1,3.6-1.5L363,358.8c0.6-1.4-0.1-3-1.5-3.6l-37.3-14.9c-1.4-0.6-3,0.1-3.6,1.5L264.1,483.5z"/>
<circle class="st3" cx="327.8" cy="358.7" r="5.5"/>
<path class="st3" d="M290.2,485.9c-0.8-0.3-1.2-1.3-0.9-2.1L339,359.1c0.3-0.8,1.3-1.3,2.1-0.9c0.8,0.3,1.3,1.3,0.9,2.1c0,0,0,0,0,0
	L292.3,485C292,485.8,291,486.2,290.2,485.9z"/>
<path class="st3" d="M301.1,475.9c-0.8-0.3-1.2-1.3-0.9-2.1L345,361.4c0.3-0.8,1.3-1.3,2.1-0.9c0.8,0.3,1.3,1.3,0.9,2.1c0,0,0,0,0,0
	L303.3,475C302.9,475.8,302,476.2,301.1,475.9z"/>
<circle class="st1" cx="394.6" cy="44.8" r="14.4"/>
<path class="st3" d="M401.7,44.2h-6.5v-6.5c0-0.3-0.3-0.6-0.6-0.6c-0.3,0-0.6,0.3-0.6,0.6c0,0,0,0,0,0v6.5h-6.5
	c-0.3,0-0.6,0.3-0.6,0.6c0,0.3,0.3,0.6,0.6,0.6h6.5v6.5c0,0.3,0.3,0.6,0.6,0.6c0.3,0,0.6-0.3,0.6-0.6c0,0,0,0,0,0v-6.5h6.5
	c0.3,0,0.6-0.3,0.6-0.6C402.3,44.5,402,44.2,401.7,44.2L401.7,44.2z"/>
<path class="st4" d="M572.5,56.7h-48.7c-6.6,0-11.9-5.3-11.9-11.9c0-6.6,5.3-11.9,11.9-11.9h48.7c6.6,0,11.9,5.3,11.9,11.9
	C584.4,51.3,579.1,56.7,572.5,56.7z"/>
<rect x="452.2" y="-5.7" transform="matrix(1.444395e-02 -0.9999 0.9999 1.444395e-02 405.1407 493.8632)" class="st5" width="1.8" height="94.1"/>
<path class="st5" d="M402.1,45.7c-2.5,0-4.6-2.1-4.6-4.6c0-2.5,2.1-4.6,4.6-4.6s4.6,2.1,4.6,4.6c0,1.8-1,3.4-2.6,4.1
	C403.5,45.6,402.8,45.7,402.1,45.7z M402.1,38.4c-1.5,0-2.8,1.2-2.8,2.8c0,1.5,1.2,2.8,2.8,2.8c1.5,0,2.8-1.2,2.8-2.8
	c0-0.4-0.1-0.8-0.3-1.2v0C404.1,39,403.1,38.4,402.1,38.4L402.1,38.4z"/>
<path class="st4" d="M120.1,72.3c0-6.6,5.4-11.9,11.9-11.9h48.7c6.6,0,11.9,5.3,11.9,11.9s-5.3,11.9-11.9,11.9H132
	C125.4,84.2,120.1,78.9,120.1,72.3z"/>
<rect x="204.4" y="68.1" transform="matrix(0.9999 -1.443994e-02 1.443994e-02 0.9999 -0.97 3.6377)" class="st5" width="94.1" height="1.8"/>
<path class="st5" d="M300.4,72.8c-2.3-1.1-3.2-3.8-2.1-6.1c1.1-2.3,3.8-3.2,6.1-2.1c2.3,1.1,3.2,3.8,2.1,6.1
	c-0.8,1.6-2.4,2.6-4.1,2.6C301.7,73.3,301,73.1,300.4,72.8z M301.5,66.1c-0.7,0.2-1.3,0.7-1.6,1.4v0c-0.7,1.4-0.1,3,1.3,3.7
	c1.4,0.7,3,0.1,3.7-1.3c0.7-1.4,0.1-3-1.3-3.7C303,65.9,302.2,65.8,301.5,66.1L301.5,66.1z"/>
<path class="st4" d="M116.4,433.5c0-6.6,5.4-11.9,11.9-11.9h48.7c6.6,0,11.9,5.3,11.9,11.9c0,6.6-5.3,11.9-11.9,11.9l0,0h-48.7
	C121.8,445.4,116.4,440.1,116.4,433.5z"/>
<rect x="200.7" y="429.3" transform="matrix(0.9999 -1.443994e-02 1.443994e-02 0.9999 -6.1859 3.6223)" class="st5" width="94.1" height="1.8"/>
<path class="st5" d="M296.7,434c-2.3-1.1-3.2-3.8-2.1-6.1c1.1-2.3,3.8-3.2,6.1-2.1c2.3,1.1,3.2,3.8,2.1,6.1
	c-0.8,1.6-2.4,2.6-4.1,2.6C298.1,434.5,297.4,434.3,296.7,434z M297.9,427.3c-0.7,0.2-1.3,0.7-1.6,1.4v0c-0.7,1.4-0.1,3,1.3,3.7
	c1.4,0.7,3,0.1,3.7-1.3c0.7-1.4,0.1-3-1.3-3.7C299.3,427.1,298.5,427,297.9,427.3z"/>
<path class="st4" d="M129.3,205.6c0-6.6,5.4-11.9,11.9-11.9h48.7c6.6,0,11.9,5.3,11.9,11.9s-5.3,11.9-11.9,11.9l0,0h-48.7
	C134.6,217.5,129.3,212.2,129.3,205.6z"/>
<rect x="213.5" y="201.3" transform="matrix(0.9999 -1.443994e-02 1.443994e-02 0.9999 -2.8933 3.7843)" class="st5" width="94.1" height="1.8"/>
<path class="st5" d="M309.6,206.1c-2.3-1.1-3.2-3.8-2.1-6.1c1.1-2.3,3.8-3.2,6.1-2.1c2.3,1.1,3.2,3.8,2.1,6.1
	c-0.8,1.6-2.4,2.6-4.1,2.6C310.9,206.6,310.2,206.4,309.6,206.1z M310.7,199.4c-0.7,0.2-1.3,0.7-1.6,1.4v0c-0.7,1.4-0.1,3,1.3,3.7
	c1.4,0.7,3,0.1,3.7-1.3c0.7-1.4,0.1-3-1.3-3.7C312.2,199.2,311.4,199.1,310.7,199.4L310.7,199.4z"/>
<path class="st4" d="M559.6,133h-48.7c-6.6,0-11.9-5.3-11.9-11.9c0-6.6,5.3-11.9,11.9-11.9h48.7c6.6,0,11.9,5.3,11.9,11.9
	C571.6,127.6,566.2,133,559.6,133z"/>
<rect x="439.3" y="70.6" transform="matrix(1.444395e-02 -0.9999 0.9999 1.444395e-02 316.1858 556.1777)" class="st5" width="1.8" height="94.1"/>
<path class="st5" d="M389.2,122c-2.5,0-4.6-2.1-4.6-4.6c0-2.5,2.1-4.6,4.6-4.6c2.5,0,4.6,2.1,4.6,4.6c0,1.8-1,3.4-2.6,4.1
	C390.6,121.8,389.9,122,389.2,122z M389.2,114.6c-1.5,0-2.8,1.2-2.8,2.8c0,1.5,1.2,2.8,2.8,2.8c1.5,0,2.8-1.2,2.8-2.8
	c0-0.4-0.1-0.8-0.3-1.2v0C391.2,115.2,390.3,114.6,389.2,114.6L389.2,114.6z"/>
<path class="st6" d="M585.7,269.1l-14.1,0.6c-3.2,8.7-0.9,29.7-0.9,29.7l-7.4,34.6c-2.4,2.4-2.5,6.4,0,8.8c2.4,2.4,6.4,2.5,8.8,0
	c1.6-1.6,2.2-3.9,1.6-6.1l15.1-41.5L585.7,269.1z"/>
<path class="st5" d="M576.2,231.2L576.2,231.2c8.2-0.3,15.2,6.2,15.4,14.4c0,0.9,0,1.8-0.2,2.8l-1.4,8.8c0,0,3.9,30.1-0.9,38.3
	l-9,24.5l-14.7-0.8l4.1-26.7c0,0,1-13.2-2.7-18.8c-2.3-3.4-4.6-16.3-5-27.1C561.5,238.4,568,231.5,576.2,231.2
	C576.2,231.2,576.2,231.2,576.2,231.2z"/>
<polygon class="st6" points="566,494.3 556.8,494.3 552.5,458.8 566,458.8 "/>
<path class="st7" d="M566.3,503.8l-28.3,0v-0.4c0-6.1,4.9-11,11-11h0l5.2-3.9l9.6,3.9l2.5,0L566.3,503.8z"/>
<polygon class="st6" points="532.8,494.3 523.6,494.3 519.3,458.8 532.8,458.8 "/>
<path class="st7" d="M533.2,503.8l-28.3,0v-0.4c0-6.1,4.9-11,11-11h0l5.2-3.9l9.6,3.9l2.5,0L533.2,503.8z"/>
<path class="st7" d="M499.5,397.7c5.5,17.4,7.6,31,11.7,48.2c1.6,3,8.7,28.1,8.7,28.1s10.6,1.2,14.3-1.8c3.7-3-0.1-17.6-0.1-17.6
	c2.5-11.1-3.6-28.6-4-39.3c0.7-4.5-3.2-8.4-3.6-12.7c2.6-2,15.4-33.4,18-42.1c-1.3,26.7,10.4,87.7,4.2,107.9
	c-3.6,11.8,4.8,9.2,17.1,9.7c5.5-1.6,3.3-11.1,3.3-11.1s3.7-6.2,3.7-8.7c2.7-11.3,5.9-35.9,5-41.5c0.4-5.9,0.6-64.6,5.1-85.1
	c3-16.4-33.7-20-44.2-23.9c-17.6-8.5-14.6,3.6-23.9,14.7C506.1,341.7,500.8,375.8,499.5,397.7z"/>
<path class="st5" d="M540.5,225.6l10.7-12l16.9,1.9l10.8,15.1l0,0c11.9,2.7,14.1,12.5,12,24.6c-4.2,24.1-14.5,41-9.8,52.9
	c7.1,18.1,3.7,32-13.4,29.5c-17.1-2.5-56.5-19.3-45.4-30.4c11.1-11.1,1.2-16.9,1.2-16.9l7.8-42.5
	C529.3,236.9,529.6,226.7,540.5,225.6L540.5,225.6z"/>
<path class="st6" d="M541.9,263.7l-13.5-4.4c-6,7-11.3,27.5-11.3,27.5L498,316.5c-3.1,1.4-4.5,5.1-3.1,8.3c1.4,3.1,5.1,4.5,8.3,3.1
	c2-0.9,3.4-2.9,3.7-5.1l28.7-33.5L541.9,263.7z"/>
<path class="st5" d="M546.4,225L546.4,225c7.8,2.6,12,11.1,9.4,18.9c-0.3,0.9-0.7,1.7-1.1,2.5l-4.4,7.8c0,0-6.9,29.5-14.3,35.5
	l-17.1,19.7l-13.5-5.9l13.2-23.6c0,0,5.6-12,4.1-18.6c-1-4,1.4-16.9,4.8-27.1C530.1,226.5,538.6,222.3,546.4,225
	C546.4,225,546.4,225,546.4,225z"/>
<circle id="fe5d9414-b808-43bb-a4dc-97fa5cac342b" class="st8" cx="563.7" cy="193.5" r="17.4"/>
<path class="st7" d="M548.6,177.8c0.3-1.4,0.8-2.8,1.7-4c1.7-2,4.7-2.3,6.8-0.6c0.1,0.1,0.3,0.2,0.4,0.4c-0.3-0.8-0.4-1.6-0.2-2.5
	c1.3,0.6,2.6,1,4,1.2l-3.1-3.2c6.4-2.8,11.6-2.7,15.4,1.4c1.1,1.2,3.3,0.4,4.5,1.6c1.2,1.2,1.2,3.8-0.2,4.5c2.9-1.1,6.3,0.5,8.2,3.2
	c1.9,2.7,2.6,6.2,2.8,9.6c0.2,4.4-0.7,9.1-3.4,12.4c-1.8,2.1-4.2,3.5-6.1,5.4l-0.1,0.1c-4.4,4.5-10.8,6.3-16.8,4.7
	c-0.3-0.1-0.7-0.2-1-0.3c-1.7,0.8-3.7-0.3-4.8-1.9c-1.1-1.8-1.3-4.1-1.4-6.2c-0.1-2.8,0.1-5.7,0.5-8.5c0.5-3.2,0.9-7.2-1.6-8.8
	c-2-1.2-4.4,0-6.3,1.2C547.6,184.1,547.8,180.9,548.6,177.8z"/>
<path class="st9" d="M719.6,505.3l-688.1,0.3c-0.6,0-1.1-0.5-1.1-1.1c0-0.6,0.5-1.1,1.1-1.1l688.1-0.3c0.6,0,1.1,0.5,1.1,1.1
	S720.2,505.3,719.6,505.3C719.6,505.3,719.6,505.3,719.6,505.3z"/>
</svg>
