<?xml version="1.0" encoding="utf-8"?>
<!-- Generator: Adobe Illustrator 26.0.3, SVG Export Plug-In . SVG Version: 6.00 Build 0)  -->
<svg version="1.1" id="Layer_1" xmlns="http://www.w3.org/2000/svg" xmlns:xlink="http://www.w3.org/1999/xlink" x="0px" y="0px"
	 viewBox="0 0 798.6 689.2" style="enable-background:new 0 0 798.6 689.2;" xml:space="preserve">
<style type="text/css">
	.st0{fill:#A0616A;}
	.st1{fill:#D0CDE1;}
	.st2{fill:#2F2E41;}
	.st3{fill:#4A5568;}
	.st4{fill:#3F3D56;}
	.st5{fill:none;stroke:#D0CDE1;stroke-width:1.4025;stroke-miterlimit:10;}
</style>
<circle class="st0" cx="425" cy="186" r="51.6"/>
<path class="st0" d="M386.5,211.8c0,0,9.7,73.2-5.2,81.5c-14.9,8.2,88.9,9,88.9,9s-23.2-63.5-12.7-83L386.5,211.8z"/>
<path class="st1" d="M546.1,302.6l-8.6,39.3l-18.3,83.2l-0.5,4.6l-6.3,52.8l-4.2,35.1l-2.8,23.5c-17.1,8.8-29.5,14.9-29.5,14.9
	s-1.1-5.3-2.8-12.2c-12,3.6-34.2,9.6-53,10.8c6.9,7.6,10,14.8,5.7,20.1c-12.9,16-66.1-17.5-84.7-29.9c-0.4,3-0.6,6-0.5,9l-14.2-11
	l1.4-25.2l2.4-42.6l3-53.5c-0.9-2.3-1.7-4.6-2.4-7c-4.4-15.5-9.7-46.5-13.7-72.5c-3.3-20.9-5.7-38.6-6.2-42.3
	c-0.1-0.5-0.1-0.7-0.1-0.7l78.8-34.8c5.6,13,31.8,16.9,31.8,16.9c21.7-1.5,38.7-12.9,38.7-12.9L546.1,302.6z"/>
<path class="st0" d="M481.8,541c0,0-3.3,1.1-8.8,2.8c-12,3.6-34.2,9.6-53,10.8c-16.2,1-29.9-1.5-32.4-12c-1.1-4.5,0.4-8.3,3.8-11.4
	c9.9-9.2,35.8-12.5,56.3-13.6c5.8-0.3,11.1-0.5,15.6-0.5c7.6-0.1,12.5,0.1,12.5,0.1l0.1,0.5L481.8,541z"/>
<path class="st2" d="M382.1,137.2l-9.6-3.9c0,0,20.2-22.2,48.2-20.3l-7.9-8.7c0,0,19.3-7.7,36.8,12.5c9.2,10.7,19.9,23.2,26.5,37.3
	h10.3l-4.3,9.5l15.1,9.5l-15.5-1.7c0.9,5.2,1.1,10.5,0.4,15.7c-0.7,5.2-3.3,10-7.5,13.3l0,0c0,0-12-24.8-12-28.6v9.6
	c0,0-9.6-8.7-9.6-14.5l-5.3,6.8l-2.6-10.6l-32.4,10.6l5.3-8.7l-20.2,2.9l7.9-10.6c0,0-22.8,12.5-23.7,23.2
	c-0.9,10.6-7.5,20.7-7.5,20.7S356.7,151.7,382.1,137.2z"/>
<path class="st1" d="M602.1,483.4c-5.3,5.7-18.3,14.3-34,23.6c-5.9,3.5-12.1,7-18.5,10.5c-15.2,8.4-31.1,16.8-44.3,23.5
	c-17.1,8.8-29.5,14.9-29.5,14.9s-1.1-5.3-2.8-12.2c-2.3-9.2-5.8-21-9.4-26.2c-0.1-0.2-0.3-0.4-0.4-0.5c-1.1-1.4-2.1-2.2-3.2-2.2
	l52.2-32.3l22.6-14l-16.2-38.8L498.2,381l12.3-39.1l12.4-39.3h23.2c0,0,7.7,16.7,17.5,40.1c1.5,3.5,3,7.1,4.5,10.9
	C588.2,402.6,613.4,471.2,602.1,483.4z"/>
<path class="st0" d="M425.7,574.6c-12.9,16-66.1-17.5-84.7-29.9c-4.1-2.7-6.5-4.4-6.5-4.4l17-22.7l5.4-7.2c0,0,4.8,2.6,12,6.7
	c0.3,0.2,0.5,0.3,0.8,0.5c6.1,3.6,13.9,8.3,21.7,13.6c10.7,7.3,21.6,15.6,28.6,23.4C426.9,562.1,430,569.3,425.7,574.6z"/>
<path class="st1" d="M368.9,517.1c-1.9,0-3.8,0.1-5.7,0.5c-16.1,2.8-20.9,17.4-22.2,27.1c-0.4,3-0.6,6-0.5,9l-14.2-11l-5.2-4
	c-12.5-4.4-23.6-12.1-33.3-21.2c-8.4-8.1-15.9-17-22.4-26.6c-6.5-9.5-12.3-19.4-17.3-29.7c-2.8-5.8-3-12.6-0.3-18.5l17.6-39.3
	l25.8-57.4c0.2-1.4,0.4-2.7,0.6-4c5.1-29.3,18.8-42.3,18.8-42.3h10.5l7,42.3l8.7,52.6l-6.1,19.9l-14.1,45.9l13.5,14.6L368.9,517.1z"
	/>
<path class="st3" d="M380.8,394.5l8.9,10.4c3.3-0.6,6.8-1.4,10.4-2.2l-2.6-8.2l6.3,7.3c37.9-9.3,84.8-27.4,84.8-27.4
	s-50.7,3.7-88.5-4.6c-16.7-3.7-34,4.6-40.8,20.3c-4,9.1-3.4,17,10.8,17c4.8-0.1,9.6-0.5,14.3-1.3L380.8,394.5z"/>
<path class="st4" d="M584.7,566v4.3c0,1.2-0.2,2.3-0.6,3.4c-0.2,0.5-0.4,1-0.7,1.4c-1.7,2.9-4.8,4.6-8.1,4.6H262.1
	c-3.3,0-6.4-1.7-8.1-4.6c-0.3-0.4-0.5-0.9-0.7-1.4c-0.4-1.1-0.6-2.2-0.6-3.4V566c0-5.2,4.2-9.4,9.4-9.4c0,0,0,0,0,0h18v-2
	c0-0.2,0.2-0.4,0.4-0.4c0,0,0,0,0,0h9.4c0.2,0,0.4,0.2,0.4,0.4c0,0,0,0,0,0v2h5.9v-2c0-0.2,0.2-0.4,0.4-0.4c0,0,0,0,0,0h9.4
	c0.2,0,0.4,0.2,0.4,0.4c0,0,0,0,0,0v2h5.9v-2c0-0.2,0.2-0.4,0.4-0.4c0,0,0,0,0,0h9.4c0.2,0,0.4,0.2,0.4,0.4c0,0,0,0,0,0v2h5.9v-2
	c0-0.2,0.2-0.4,0.4-0.4c0,0,0,0,0,0h9.4c0.2,0,0.4,0.2,0.4,0.4c0,0,0,0,0,0v2h5.9v-2c0-0.2,0.2-0.4,0.4-0.4c0,0,0,0,0,0h9.4
	c0.2,0,0.4,0.2,0.4,0.4c0,0,0,0,0,0v2h5.9v-2c0-0.2,0.2-0.4,0.4-0.4c0,0,0,0,0,0h9.4c0.2,0,0.4,0.2,0.4,0.4c0,0,0,0,0,0v2h5.9v-2
	c0-0.2,0.2-0.4,0.4-0.4c0,0,0,0,0,0h73.8c0.2,0,0.4,0.2,0.4,0.4c0,0,0,0,0,0v2h5.9v-2c0-0.2,0.2-0.4,0.4-0.4c0,0,0,0,0,0h9.4
	c0.2,0,0.4,0.2,0.4,0.4v2h5.9v-2c0-0.2,0.2-0.4,0.4-0.4c0,0,0,0,0,0h9.4c0.2,0,0.4,0.2,0.4,0.4c0,0,0,0,0,0v2h5.9v-2
	c0-0.2,0.2-0.4,0.4-0.4c0,0,0,0,0,0h9.4c0.2,0,0.4,0.2,0.4,0.4c0,0,0,0,0,0v2h5.9v-2c0-0.2,0.2-0.4,0.4-0.4c0,0,0,0,0,0h9.4
	c0.2,0,0.4,0.2,0.4,0.4v2h5.9v-2c0-0.2,0.2-0.4,0.4-0.4c0,0,0,0,0,0h9.4c0.2,0,0.4,0.2,0.4,0.4c0,0,0,0,0,0v2h5.9v-2
	c0-0.2,0.2-0.4,0.4-0.4c0,0,0,0,0,0h9.4c0.2,0,0.4,0.2,0.4,0.4c0,0,0,0,0,0v2h27.5C580.5,556.6,584.7,560.8,584.7,566
	C584.7,566,584.7,566,584.7,566z"/>
<rect x="161.7" y="573.7" class="st4" width="514" height="1.4"/>
<path class="st4" d="M559.5,386.8H442.7v-2.4h-52.9v2.4H272.6c-4.4,0-7.9,3.5-7.9,7.9l0,0v159.8c0,4.4,3.5,7.9,7.9,7.9h286.8
	c4.4,0,7.9-3.5,7.9-7.9V394.7C567.4,390.3,563.8,386.8,559.5,386.8z"/>
<circle class="st5" cx="416.3" cy="442.6" r="17.5"/>
<circle class="st1" cx="410.7" cy="448.9" r="17.5"/>
<rect x="175.7" y="566.6" class="st1" width="19.6" height="19.6"/>
<path class="st4" d="M183.4,551.2V575h23.8v-23.8H183.4z M206.2,574h-21.8v-21.8h21.8V574z"/>
<rect x="630.1" y="566.6" class="st1" width="19.6" height="19.6"/>
<path class="st4" d="M637.8,551.2V575h23.8v-23.8H637.8z M660.6,574h-21.8v-21.8h21.8V574z"/>
<circle class="st3" cx="185.6" cy="208.7" r="55.6"/>
<path class="st4" d="M205,142.6c-5-0.6-10.1-0.6-15.2,0c-22.9,3-42,19.1-48.8,41.2c-1.5,4.9-2.4,10-2.6,15.2c0,0.7,0,1.4,0,2.2
	c0,32.6,26.4,59,59,59c1.3,0,2.5,0,3.8-0.1c2.9-0.2,5.8-0.6,8.6-1.2c31.9-6.9,52.1-38.2,45.3-70.1
	C249.9,164.3,229.8,145.8,205,142.6L205,142.6z M215.9,255.4L215.9,255.4c-4.8,1.6-9.7,2.6-14.7,2.9c-1.2,0.1-2.5,0.1-3.8,0.1
	c-31.6,0-57.3-25.7-57.3-57.3c0-0.7,0-1.4,0-2.2c1.2-30.8,26.5-55.1,57.3-55.2c31.7,0,57.3,25.7,57.3,57.3
	C254.7,225.6,239.1,247.5,215.9,255.4L215.9,255.4z"/>
<rect x="196.6" y="147.1" class="st4" width="1.7" height="11.8"/>
<rect x="162.6" y="161.2" transform="matrix(0.7071 -0.7071 0.7071 0.7071 -70.2999 164.5247)" class="st4" width="1.7" height="11.8"/>
<rect x="143.5" y="200.3" class="st4" width="11.8" height="1.7"/>
<rect x="157.5" y="234.2" transform="matrix(0.7071 -0.7071 0.7071 0.7071 -118.3495 184.4275)" class="st4" width="11.8" height="1.7"/>
<rect x="225.5" y="166.3" transform="matrix(0.7071 -0.7071 0.7071 0.7071 -50.3971 212.5743)" class="st4" width="11.8" height="1.7"/>
<rect x="239.6" y="200.3" class="st4" width="11.8" height="1.7"/>
<rect x="230.6" y="229.2" transform="matrix(0.7071 -0.7071 0.7071 0.7071 -98.4467 232.4771)" class="st4" width="1.7" height="11.8"/>
<rect x="196.6" y="243.2" class="st4" width="1.7" height="11.8"/>
<path class="st4" d="M200,197.7c-1.5-1.1-3.6-1.1-5.1,0c-0.5,0.4-0.9,0.9-1.2,1.4c-1.1,2.1-0.3,4.6,1.8,5.7c2.1,1.1,4.6,0.3,5.7-1.8
	C202.1,201.2,201.6,199,200,197.7L200,197.7z M197.4,203.6c-1.4,0-2.5-1.1-2.5-2.5c0-0.5,0.2-1,0.4-1.4c0.8-1.1,2.4-1.4,3.5-0.6
	c1.1,0.8,1.4,2.4,0.6,3.5C199,203.2,198.3,203.6,197.4,203.6L197.4,203.6z"/>
<rect x="189.8" y="127.8" class="st4" width="15.2" height="15.2"/>
<ellipse class="st4" cx="197.4" cy="123.1" rx="20.2" ry="7.2"/>
<rect x="194.9" y="169.1" class="st4" width="5.1" height="28.7"/>
<rect x="119.3" y="257.5" class="st4" width="158.5" height="1.7"/>
<path class="st1" d="M224.9,523.5c0.7,22.4-12.4,30.6-28.9,31.1c-0.4,0-0.8,0-1.1,0c-0.8,0-1.5,0-2.3,0
	c-14.9-0.6-26.6-8.5-27.2-29.3c-0.6-21.6,26.1-49.6,28.1-51.7l0,0c0.1-0.1,0.1-0.1,0.1-0.1S224.2,501.1,224.9,523.5z"/>
<path class="st4" d="M194.9,551.2l10.4-15.5l-10.4,17.2l0,1.7c-0.8,0-1.5,0-2.3,0l0.5-22.4l0-0.2l0,0l0-2.1l-11.4-16.6l11.4,15
	l0,0.4l0.4-17l-9.9-17.2l9.9,14.2l-0.1-35.1l0-0.1l0,0.1l0.7,27.7l9-11.2l-9,13.6l0.2,15.2l8.3-14.8l-8.2,17l0.1,8.4l12-20.6
	l-12,23.6L194.9,551.2z"/>
<path class="st1" d="M679.3,523.5c0.7,22.4-12.4,30.6-28.9,31.1c-0.4,0-0.8,0-1.1,0c-0.8,0-1.5,0-2.3,0
	c-14.9-0.6-26.6-8.5-27.2-29.3c-0.6-21.6,26.1-49.6,28.1-51.7l0,0c0.1-0.1,0.1-0.1,0.1-0.1S678.6,501.1,679.3,523.5z"/>
<path class="st4" d="M649.3,551.2l10.4-15.5l-10.4,17.2l0,1.7c-0.8,0-1.5,0-2.3,0l0.5-22.4l0-0.2l0,0l0-2.1l-11.4-16.6l11.4,15
	l0,0.4l0.4-17l-9.9-17.2l9.9,14.2l-0.1-35.1l0-0.1l0,0.1l0.7,27.7l9-11.2l-9,13.6l0.2,15.2l8.3-14.8l-8.2,17l0.1,8.4l12-20.6
	l-12,23.6L649.3,551.2z"/>
</svg>
