<?xml version="1.0" encoding="utf-8"?>
<!-- Generator: Adobe Illustrator 26.0.3, SVG Export Plug-In . SVG Version: 6.00 Build 0)  -->
<svg version="1.1" id="Layer_1" xmlns="http://www.w3.org/2000/svg" xmlns:xlink="http://www.w3.org/1999/xlink" x="0px" y="0px"
	 viewBox="0 0 310 310" style="enable-background:new 0 0 310 310;" xml:space="preserve">
<path style="fill:#4a5568" d="M197.8,63.2c-23.1-5.4-47.2-5.4-70.4,0c-13.4-8.2-23.6-12-31-13.6c-4-0.9-7.2-1.1-9.6-1c-1.2,0-2.2,0.1-3,0.3
	c-0.4,0.1-0.7,0.1-1,0.2c-0.1,0-0.3,0.1-0.4,0.1l-0.2,0l-0.1,0l0,0l0,0c0,0,0,0,0,0c0,0,0,0.1,2.6,9.1L82,49.3
	c-2.7,0.8-4.9,2.7-6,5.2c-3.2,7.1-4.9,14.8-5.1,22.6C70.7,83,71.4,88.8,73,94.3c-4,4.9-7.3,10.4-9.7,16.2c-3.2,7.7-4.8,16-4.8,24.3
	c0,29.4,8.7,49.2,23.5,61.9c10.4,8.9,22.9,13.6,35.6,16.3c-2.1,5.8-2.6,11.9-2.2,18.1v11.3c-7.7,1.6-13,1.1-16.8-0.1
	c-4.8-1.6-8.4-4.7-11.9-9.3c-1.8-2.3-3.4-4.8-5.1-7.6l-1.1-1.8c-1.3-2.2-2.8-4.5-4.2-6.7c-3.6-5.3-8.9-12-17.6-14.3l-9.2-2.4
	l-4.8,18.3l9.2,2.4c1.5,0.4,3.5,1.8,6.7,6.6c1.2,1.8,2.3,3.6,3.6,5.7c0.4,0.7,0.8,1.4,1.3,2.1c1.8,2.9,3.8,6.1,6.2,9.2
	c4.8,6.3,11.3,12.6,21,15.7c6.7,2.2,14.2,2.7,22.8,1.4v35.4c0,5.2,4.2,9.5,9.5,9.5h75.8c5.2,0,9.5-4.2,9.5-9.5v-67.5
	c0-6-0.3-11.4-1.9-16.6c12.5-2.6,25-7.4,35.3-16.3c14.8-12.8,23.4-32.7,23.4-62.3v0c0-14.7-5.2-29-14.5-40.2
	c1.5-5.6,2.2-11.4,2.1-17.2c-0.2-7.8-1.9-15.5-5.1-22.6c-1.1-2.6-3.4-4.5-6-5.2l-2.6,9.1c2.6-9.1,2.6-9.1,2.6-9.1l0,0l-0.1,0l-0.2,0
	c-0.1,0-0.3-0.1-0.4-0.1c-0.3-0.1-0.6-0.1-1-0.2c-0.8-0.1-1.8-0.2-3-0.3c-2.4-0.1-5.6,0.2-9.6,1C221.4,51.3,211.1,55,197.8,63.2z"/>
</svg>
