<?xml version="1.0" encoding="utf-8"?>
<!-- Generator: Adobe Illustrator 26.0.3, SVG Export Plug-In . SVG Version: 6.00 Build 0)  -->
<svg version="1.1" id="Layer_1" xmlns="http://www.w3.org/2000/svg" xmlns:xlink="http://www.w3.org/1999/xlink" x="0px" y="0px"
	 viewBox="0 0 455 455" style="enable-background:new 0 0 455 455;" xml:space="preserve">
<g>
	<g>
		<g>
			<g>
				<path style="fill:#4a5568" d="M430.3,24.8C413.6,8,393.5-0.3,370-0.3H85.1C61.6-0.3,41.5,8,24.8,24.8S-0.3,61.6-0.3,85.1V370
					c0,23.5,8.3,43.7,25.1,60.4s36.8,25.1,60.4,25.1h66.5c4.3,0,7.6-0.2,9.8-0.5c2.5-0.5,4.8-1.9,6.5-3.9c2.2-2.3,3.3-5.6,3.3-9.9
					L171,421c-0.1-12.9-0.1-23-0.1-30.6l-6.8,1.2c-4.3,0.8-9.8,1.1-16.4,1c-6.9-0.1-13.8-0.8-20.6-2.1c-7.2-1.3-14.1-4.4-19.9-8.9
					c-6.1-4.6-10.7-11-13-18.2l-3-6.8c-2.5-5.4-5.6-10.5-9.4-15.1c-4.2-5.5-8.6-9.3-12.9-11.3l-2.1-1.5c-1.4-1-2.7-2.2-3.9-3.6
					c-1.1-1.2-2-2.6-2.7-4.2c-0.6-1.4-0.1-2.5,1.5-3.4c1.6-0.9,4.4-1.3,8.6-1.3l5.9,0.9c3.9,0.8,8.9,3.1,14.7,7.1
					c5.9,4,10.8,9.3,14.4,15.4c4.6,8.1,10,14.3,16.5,18.5c6.4,4.2,12.9,6.4,19.4,6.4s12.2-0.5,16.9-1.5c4.6-1,9.1-2.5,13.3-4.5
					c1.8-13.2,6.6-23.4,14.5-30.6c-10.3-1-20.4-2.8-30.4-5.3c-9.7-2.7-19.1-6.6-27.9-11.6c-9.2-5-17.3-11.8-23.9-19.9
					c-6.3-7.9-11.5-18.3-15.6-31.1c-4-12.9-6.1-27.7-6.1-44.5c0-23.9,7.8-44.3,23.4-61.1c-7.3-18-6.6-38.2,2.1-60.5
					c5.7-1.8,14.3-0.5,25.5,4s19.5,8.3,24.8,11.4c5.2,3.2,9.4,5.9,12.6,8c18.5-5.2,37.7-7.8,57-7.7c19.6,0,38.6,2.6,57,7.7l11.3-7.1
					c8.7-5.2,17.8-9.6,27.3-13c10.5-4,18.5-5,24-3.3c8.9,22.4,9.7,42.5,2.3,60.5c15.6,16.8,23.4,37.2,23.4,61.1
					c0,16.8-2,31.7-6.1,44.6c-4,13-9.3,23.3-15.7,31.2c-6.4,7.8-14.4,14.4-24,19.7c-9.6,5.3-18.9,9.2-27.9,11.6
					c-10,2.6-20.1,4.3-30.4,5.4c10.3,8.9,15.4,22.9,15.4,42.1v70.9c0,3.4,0.5,6.1,1.5,8.1c0.9,2,2.6,3.6,4.7,4.3
					c2.2,0.8,4.1,1.3,5.8,1.5c1.7,0.2,4.1,0.3,7.3,0.3H370c23.5,0,43.7-8.3,60.4-25.1c16.7-16.7,25.1-36.8,25.1-60.4V85.1
					C455.4,61.6,447,41.5,430.3,24.8L430.3,24.8z"/>
			</g>
		</g>
	</g>
</g>
<g>
	<g>
		<g>
			<g>
				<rect style="fill:#4a5568" x="-2" y="-0.3" width="72" height="83.9"/>
			</g>
		</g>
	</g>
</g>
<g>
	<g>
		<g>
			<g>
				<rect style="fill:#4a5568" x="378.3" y="0.5" width="76.2" height="72"/>
			</g>
		</g>
	</g>
</g>
<g>
	<g>
		<g>
			<g>
				<rect style="fill:#4a5568" x="369" y="378.3" width="86.4" height="77.1"/>
			</g>
		</g>
	</g>
</g>
<g>
	<g>
		<g>
			<g>
				<rect style="fill:#4a5568" x="-22.3" y="371.5" width="105.9" height="94"/>
			</g>
		</g>
	</g>
</g>
</svg>
