<?xml version="1.0" encoding="utf-8"?>
<!-- Generator: Adobe Illustrator 26.0.3, SVG Export Plug-In . SVG Version: 6.00 Build 0)  -->
<svg version="1.1" id="Layer_1" xmlns="http://www.w3.org/2000/svg" xmlns:xlink="http://www.w3.org/1999/xlink" x="0px" y="0px"
	 viewBox="0 0 310 310" style="enable-background:new 0 0 310 310;" xml:space="preserve">
<g id="XMLID_826_">
	<path style="fill:#4a5568" id="XMLID_827_" d="M288.9,103.3c-4.4,1.9-8.9,3.6-13.5,4.9c5.4-6.2,9.6-13.4,12.1-21.3c0.6-1.8,0-3.7-1.5-4.9
		c-1.5-1.2-3.5-1.3-5.1-0.4c-9.8,5.8-20.3,9.9-31.3,12.4C238.6,83.2,223.5,77,207.8,77c-33,0-59.8,26.8-59.8,59.8
		c0,2.6,0.2,5.2,0.5,7.7c-40.9-3.6-78.9-23.7-105-55.7c-0.9-1.1-2.4-1.8-3.8-1.6c-1.5,0.1-2.8,0.9-3.5,2.2
		c-5.3,9.1-8.1,19.5-8.1,30.1c0,14.4,5.1,28.1,14.2,38.8c-2.8-1-5.4-2.2-8-3.6c-1.4-0.8-3-0.8-4.4,0c-1.4,0.8-2.2,2.2-2.3,3.8
		c0,0.3,0,0.5,0,0.8c0,21.5,11.6,40.9,29.3,51.4c-1.5-0.2-3-0.4-4.5-0.7c-1.6-0.3-3.2,0.2-4.2,1.4c-1.1,1.2-1.4,2.8-0.9,4.3
		c6.5,20.4,23.4,35.5,43.8,40.1c-16.9,10.6-36.2,16.1-56.5,16.1c-4.2,0-8.5-0.2-12.7-0.7c-2.1-0.2-4.1,1-4.8,2.9
		c-0.7,2,0,4.2,1.8,5.3C44.9,296.2,75,305,106,305c60.9,0,98.9-28.7,120.2-52.8c26.5-30,41.6-69.8,41.6-109c0-1.6,0-3.3-0.1-4.9
		c10.4-7.9,19.4-17.4,26.7-28.3c1.1-1.7,1-3.9-0.3-5.4C292.9,103,290.8,102.5,288.9,103.3z"/>
</g>
</svg>
